/* XPM */
static char *_51a66c5fdb641c2eff7f2a484d8c310RO2mzEbY7z7s2nef[] = {
/* columns rows colors chars-per-pixel */
"64 64 26 1 ",
"  c None",
". c #327041",
"X c #6E5A43",
"o c #C74E58",
"O c #4E8A5C",
"+ c #663885",
"@ c #8050A6",
"# c #8760A3",
"$ c #B86EA6",
"% c #E67E87",
"& c #E36DC7",
"* c #BAAFB8",
"= c #BFB4BA",
"- c #D1BEA7",
"; c #EBCEA4",
": c #D6B8CB",
"> c #EBA4DA",
", c #E6BCD6",
"< c #D1AEEB",
"1 c #D6C3CE",
"2 c #F5E0C4",
"3 c #E6DAE4",
"4 c #F5D3ED",
"5 c #F5E4EE",
"6 c #FAEBF4",
"7 c white",
/* pixels */
"=11111111111111==11111111111111==1111.1.1111111==11111111111111=",
"155555555555555117777777777777 1155oo..O.55555511777777777777771",
"15,,,,,,,,,,,,5117666666666666711oo%%.OOO..,,,511766666666666671",
"1,,,,,,,,,,,,,,11666666666666671o%-%...OO.,,,,,11766666666666661",
"1,,,,,,,,,,,,,,11666666666666671o---%%%.OO.,,,,11766666666666661",
"1,5,,,,,,,,,,,,1166666666666666o%%-%%%%....,,,,11666666766666661",
"1,,5,,,,,,5,,,,116676666+++6666oX%%%%%%.%%.,,,,11666666676666661",
"1,,,5,,,,,,5,,,11666766+##@++++o%X%%X%%%%%o,,,,11666666667666661",
"1,,,,5,,,,,,5,,1166667+<##@+###+%%%%%%%X%%o,,,,11666666666766661",
"1,,,,,,,,,,,,,,11666$$+#@@+<####+%%%%%%%%o$$,,,11666666666676661",
"1,,,,,,,,,,,,,,1166&4$+@@+<##+##@+X%%X%%%o$$$,,11667666666666661",
"1,,,,,,,,,,,,,,116$4$$$+@+#@+++@@+%%%%%oo$$$$$,11666766666666661",
"1,,,,,,,,,,,,,,116$4$$$$++@##+#@@+ooooo$$$$4$$,11666676666666661",
"1:,,,,,,,,,,,,:115$$4$$$$$+##@@@+$$$$$$$$$4$$$:11566666666666651",
"1::::::::::::::115$$>44$$$$+@@@+$$$$$$$$44>$$$:11555555555555551",
"=11111111111111==1$$>>>444$$+++$$$$$$$444>>$$$1==11111111111111=",
"=11111111111111==1;$$>>>>>444444444444>>>>>$$;1==11111111111111=",
"177777777777777115;$$>>>>$>>>>>>>>>$$>>>>>>$$;711555555555555551",
"176666666666667115;$$>>>$$$>>>>>>>$$$$>>>>$$$;7115,,,,,,,,,,,,51",
"17666666666666611,;$$$>$$2$$>>>>>$$22$$$$$$$2;711,,,,,,,,,,,,,,1",
"16666666666666611,;2$$$$$2$$$>>>$$$2222$$$$22;711,,,,,,,,,,,,,,1",
"16666666667666611,;22$$$222$$$>>$$222222$$222;611,,,,,,,,5,,,,,1",
"16666666666766611,;222222222$$$$$$22222222222;611,,,,,,,,,5,,,,1",
"16666666666676611,;2222222222$$$$222222222222;611,,,,,,,,,,5,,,1",
"16676666666666$$$$;22222222222222222222222222;$$$$,,,,,,,,,,5,,1",
"16667666666$$$4$$$;22222222222222222222222222;$$$$$$$,,,,,,,,,,1",
"1666676666$>44$$$$$;222222222222222222222222;$$$$$$>>$,,,,,,,,,1",
"1666667666$>4$$$$$$$;2222222222222222222222;$$$$$$4>>$,,,,,,,,,1",
"1666666766$$>4$$$$$$$;;222222222222222222;;$$$$$$$4>$$5,,,,,,,,1",
"1566666666$$>>4$$$$$$$$;;;;2222222222;;;;$$$$$$$44>>$$,,,,,,,,:1",
"1555555555$$>>>4$$$$$$$$$$$;;;;;;;;;;$$$$$$$$$44>>>>$$:::::::::1",
"=111111111$$>>>>444$$$$$$$$$$$$$$$$$$$$$$$$$$4>>>>>>$$111111111=",
"=111111111$$>>>>>>>4444$$$$$$$$$$$$$$$$$$4444>>>>>>>$$111111111=",
"1555555555$$>>>>>>>$$>>444444444444444444>>>>>>>>>>$$;7777777771",
"15,,,,,,,,;$$>>>>>$$$$>>>>>>>>>>>>>>>>>>>>$$>>>>>>>$$;6666666671",
"1,,,,,,,,,;$$>>>>$$$2$$$>>>>>>>>>>>>>>>>>$$$$>>>>>>$$;6666666671",
"1,,,,,,5,,;$$>>>>$$222$$>>>>>>>>>>>>>>>>$$2$$$>>>>>$$;6666666671",
"1,,,,,,,5,;$$$$$$$2222$$$>>>>>>>$$>>>>>>$222$$$>>>>$$;6766666661",
"1,,,,,,,,5;2$$$$$222222$$$>>>>>$$$$>>>>$$2222$$$>>$$2;6676666661",
"1,,,,,,,,,;22$$$22222222$$$>>>$$2$$$>>$$$22222$$$$$$2;6667666661",
"1,,,,,,,,,;2222222222222$$$$>$$$2$$$$$$$2222222$$$$22;6666766661",
"1,,,5,,,,,;2222222222222$$$$$$$2222$$$$$2222222222222;6666676661",
"1,,,,5,,,,;22222222222222$$$$$222222$$$22222222222222;6666666661",
"1,,,,,5,,,;222222222222222222222222222222222222222222;6666666661",
"1,,,,,,,,*;222222222222222222222222222222222222222222;*666666661",
"1:,,,,,,*3;222222222222222222222222222222222222222222;3*66666651",
"1::::::*33;222222222222222222222222222222222222222222;33*5555551",
"=11111*333;222222222222222222222222222222222222222222;333*11111=",
"=11111*333;222222222222222222222222222222222222222222;333*11111=",
"177777*333*;2222222222222222222222222222222222222222;*333*555551",
"176666*333*;;;222222222222222222222222222222222222;;;*333*,,,,51",
"176666*3333***;;22222222222222222222222222222222;;***3333*,,,,,1",
"176666*3333333**;;;22222222222222222222222222;;;**3333333*,,,,,1",
"166666*333333333***;;;;222222222222222222;;;;***333333333*,,,,,1",
"1666666*33333333333****;;;;;;;;;;;;;;;;;;****33333333333*,,,,,,1",
"16666666*33333333333333******************33333333333333*,5,,,,,1",
"166666666**333333333333333333333333333333333333333333**,,,5,,,,1",
"16666666667**33333333333333333333333333333333333333**,,,,,,5,,,1",
"1667666666666***33333333333333333333333333333333***5,,,,,,,,,,,1",
"1666766666666661********************************1,,,5,,,,,,,,,,1",
"16666666666666611,,,,,,,,,,,,,,116666666666666611,,,,5,,,,,,,,,1",
"15666666666666511:,,,,,,,,,,,,:115666666666666511:,,,,,,,,,,,,:1",
"15555555555555511::::::::::::::115555555555555511::::::::::::::1",
"=11111111111111==11111111111111==11111111111111==11111111111111="
};
