/* XPM */
static char *e3eea7152d764ac9c2460c916dcd549cEYrm1devp7Rf3V73[] = {
/* columns rows colors chars-per-pixel */
"64 64 17 1 ",
"  c #8A6C48",
". c #AD9579",
"X c #95AB76",
"o c #DBD374",
"O c #A5B888",
"+ c #BFB4BA",
"@ c #D9BB98",
"# c #D6B8CB",
"$ c #E6BCD6",
"% c #DA99E0",
"& c #E2ACE8",
"* c #E1B5E6",
"= c #D6C3CE",
"- c #E6C5EB",
"; c #F5E4EE",
": c #FAEBF4",
"> c white",
/* pixels */
"+==============++==============++==============++==============+",
"=;;;;;;;;@@@@@@@@@@@@@@@@@@@@@@@@@@@@@@@@@@@@@@@@@@@@@@>>>>>>>>=",
"=;$$$$$$$@@..........................................@@:::::::>=",
"=$$$$$$$$@@                                          @@::::::::=",
"=$$$$$$$$@@ ................ @@@@@@ ................ @@::::::::=",
"=$;$$$$$$@@ .@@@@@@@@@@@@@@. @@@@@@ .@@@@@@@@@@@@@@. @@>:::::::=",
"=$$;$$$$$@@ .@@@@@@@@@@@@@@. @@@@@@ .@@@@@@@@@@@@@@. @@:>::::::=",
"=$$$;$$$$@@ .@@@@@@@@@@@@@@. @@@@@@ .@@@@@@@@@@@@@@. @@::>:::::=",
"=$$$$;$$$@@ .@@@@@@@@@@@@@@. @@@@@@ .@@@@@@@@@@@@@@. @@:::>::::=",
"=$$$$$$$$@@ .@@@@@@@@@@@@@@. @@@@@@ .@@@@@@@@@@@@@@. @@::::>:::=",
"=$$$$$$$$@@ .@@@@@@@@@@@@@@. @@@@@@ .@@@@@@@@@@@@@@. @@::::::::=",
"=$$$$$$$$@@ .@@@        @@@. @@@@@@ .@@@        @@@. @@::::::::=",
"=$$$$$$$$@@ .@@ ........ @@. @@@@@@ .@@ ........ @@. @@::::::::=",
"=#$$$$$$$@@ .@@ .@@@@@@. @@. @@@@@@ .@@ .@@@@@@. @@. @@:::::::;=",
"=########@@ .@@ .@@@@@@. @@. @@@@@@ .@@ .@@@@@@. @@. @@;;;;;;;;=",
"+========@@ .@@ .@@@@@@. @@. @@@@@@ .@@ .@@@@@@. @@. @@========+",
"+========@@ .@@ .@@@@@@. @@. @@@@@@ .@@ .@@@@@@. @@. @@========+",
"=>>>>>>>>@@ .@@ .@@@@@@. @@. @@@@@@ .@@ .@@@@@@. @@. @@;;;;;;;;=",
"=>:::::::@@ .@@ .@@@@@@. @@. @@@@@@ .@@ .@@@@@@. @@. @@$$$$$$$;=",
"=>:::::::@@ .@@ .@@@@@@. @@. @@@@@@ .@@ .@@@@@@. @@. @@$$$$$$$$=",
"=::::::::@@ .@@ .@@@@@@. @@. @@@@@@ .@@ .@@@@@@. @@. @@$$$$$$$$=",
"=::::::::@@ .@@ .@@@@@@. @@. @@@@@@ .@@ .@@@@@@. @@. @@$$;$$$$$=",
"=::::::::@@ .@@ .@@@@@@. @@. @@@@@@ .@@ .@@@@@@. @@. @@$$$;$$$$=",
"=::::::::@@ .@@ .@@@@@@. @@. @@@@@@ .@@ .@@@@@@. @@. @@$$$$;$$$=",
"=::>:::::@@ .@@ .@@@@@@. @@. @@@@@@ .@@ .@@@@@@. @@. @@$$$$$;$$=",
"=:::>::::@@ .@@ .@@@@@@. @@. @@@@@@ .@@ .@@@@@@. @@. @@$$$$$$$$=",
"=::::>:::@@ .@@ .@@@@@@. @@. @@@@@@ .@@ .@@@@@@. @@. @@$$$$$$$$=",
"=:::::>::@@ .@@ .@@@@@@. @@. @@@@@@ .@@ .@@@@@@. @@. @@$$$$$$$$=",
"=::::::>:@@ .@@ .@@@@@@. @@. @@@@@@ .@@ .@@@@@@. @@. @@$$$$$$$$=",
"=;:::::::@@ .@@ .@@@@@@. @@. @@@@@@ .@@ .@@@@@@. @@. @@$$$$$$$#=",
"=;;;;;;;;@@ .@@ .@@@@@@. @@. @@@@@@ .@@ .@@@@@@. @@. @@########=",
"+========@@ .@@ .@@@@@@. @@. @@@@@@ .@@ .@@@@@@. @@. @@========+",
"+========@@ .@@ .@@@@@@. @@. @@@@@@ .@@ .@@@@@@. @@. @@========+",
"=;;;;;;;;@@ .@@ ........ @@. @@@@@@ .@@ ........ @@. @@>>>>>>>>=",
"=;$$$$$$$@@ .@@@        @@@. @@@@@@ .@@@        @@@. @@:::::::>=",
"=$$$$$$$$@@ .@@@@@@@@@@@@@@. @@@@@@ .@@@@@@@@@@@@@@. @@:::::::>=",
"=$$$$$$;$@@ .@@@@@@@@@@@@@@. @@@@@@ .@@@@@@@@@@@@@@. @@:::::::>=",
"=$$$$$$$;@@ .@@@@@@@@@@@@@@. @@@@@@ .@@@@@@@@@@@@@@. @@>:::::::=",
"=$$$$$$$$@@ .@@@@@@@@@@@@@@. @@@@@@ .@@@@@@@@@@@@@@. @@:>::::::=",
"=$$$$$$$$@@ .@@@@@@@@@@@OX@. @@@@@@ .@XO@@@@@@@@@@@. @@::>:::::=",
"=$$$$$$$$@@ .@@@@@@@@@@-*X@. @@@@@@ .@X*-@@@@@@@@@@. @@:::>::::=",
"=$$$;$$$$@@ .@@@@@@@@@-*&@@. @@@@@@ .@@&*-@@@@@@@@@. @@::::>:::=",
"=$$$$;$$$@@ .@@@@@@@@O*&%@@. @@@@@@ .@@%&*O@@@@@@@@. @@::::::::=",
"=$$$$$;$$@@ .@@@@@@@@XX@@@@. @@@@@@ .@@@@XX@@@@@@@@. @@::::::::=",
"=$$$$$$$$@@ .@@@@@@@@@@@@@.. @@@@@@ ..@@@@@@@@@@@@@. @@::::::::=",
"=#$$$$$$$@@ ............... @@    @@ ............... @@:::::::;=",
"=########@@                @@ @@@@ @@                @@;;;;;;;;=",
"+========@@@@@@@@@@@@@@@@@@@@ @oo@ @@@@@@@@@@@@@@@@@@@@========+",
"+========@@@@@@@@@@@@@@@@@@@@ @@@@ @@@@@@@@@@@@@@@@@@@@========+",
"=>>>>>>>>@@@@@@@@@@@@@@@@@@@@@    @@@@@@@@@@@@@@@@@@@@@;;;;;;;;=",
"=>:::::::@@                  @@@@@@                  @@$$$$$$$;=",
"=>:::::::@@ ................ @@@@@@ ................ @@$$$$$$$$=",
"=>:::::::@@ .@@@@@@@@@@@@@@. @@@@@@ .@@@@@@@@@@@@@@. @@$$$$$$$$=",
"=::::::::@@ .@@@@@@@@@@@@@@. @@@@@@ .@@@@@@@@@@@@@@. @@;$$$$$$$=",
"=::::::>:@@ .@@@@@@@@@@@OX@. @@@@@@ .@XO@@@@@@@@@@@. @@$;$$$$$$=",
"=:::::::>@@ .@@@@@@@@@@-*X@. @@@@@@ .@X*-@@@@@@@@@@. @@$$;$$$$$=",
"=::::::::@@ .@@@@@@@@@-*&@@. @@@@@@ .@@&*-@@@@@@@@@. @@$$$;$$$$=",
"=::::::::@@ .@@@@@@@@O*&%@@. @@@@@@ .@@%&*O@@@@@@@@. @@$$$$;$$$=",
"=::>:::::@@ .@@@@@@@@XX@@@@. @@@@@@ .@@@@XX@@@@@@@@. @@$$$$$$$$=",
"=:::>::::@@ .@@@@@@@@@@@@@@. @@@@@@ .@@@@@@@@@@@@@@. @@$$$$$$$$=",
"=::::::::@@ ................ @@@@@@ ................ @@$$$$$$$$=",
"=;:::::::@@                  @@@@@@                  @@$$$$$$$#=",
"=;;;;;;;;@@@@@@@@@@@@@@@@@@@@@@@@@@@@@@@@@@@@@@@@@@@@@@########=",
"+========@@@@@@@@@@@@@@@@@@@@@@@@@@@@@@@@@@@@@@@@@@@@@@========+"
};
