/* XPM */
static char *_f2e1ee60b8a468389233a2203d7b2fbEHjgE31mRwHvOaaB[] = {
/* columns rows colors chars-per-pixel */
"64 64 8 1 ",
"  c None",
". c #BFB4BA",
"X c #D6B8CB",
"o c #E6BCD6",
"O c #D6C3CE",
"+ c #F5E4EE",
"@ c #FAEBF4",
"# c white",
/* pixels */
".OOOOOOOOOOOOOO..OOOOOOOOOOOOOO..OOOOOOOOOOOOOO..OOOOOOOOOOOOOO.",
"O++++++++++++++OO############# OO++++++++++++++OO##############O",
"O+oooooooooooo+OO#@@@@@@@@@@@@#OO+oooooooooooo+OO#@@@@@@@@@@@@#O",
"OooooooooooooooOO@@@@@@@@@@@@@#OOooooooooooooooOO#@@@@@@@@@@@@@O",
"OooooooooooooooOO@@@@@@@@@@@@@#OOooooooooooooooOO#@@@@@@@@@@@@@O",
"Oo+ooooooooooooOO@@@@@@@@@@@@@@OOooooooooooooooOO@@@@@@#@@@@@@@O",
"Ooo+oooooo+ooooOO@@#@@@@@@#@@@@OOooooooo+ooooooOO@@@@@@@#@@@@@@O",
"Oooo+oooooo+oooOO@@@#@@@@@@#@@@OOoooooooo+oooooOO@@@@@@@@#@@@@@O",
"Ooooo+oooooo+ooOO@@@@#@@@@@@#@@OOooooooooo+ooooOO@@@@@@@@@#@@@@O",
"OooooooooooooooOO@@@@@#@@@@@@@@OOoooooooooo+oooOO@@@@@@@@@@#@@@O",
"OooooooooooooooOO@@@@@@#@@@@@@@OOoo+oooooooooooOO@@#@@@@@@@@@@@O",
"OooooooooooooooOO@@@@@@@@@@@@@@OOooo+ooooooooooOO@@@#@@@@@@@@@@O",
"OooooooooooooooOO@@@@@@@@@@@@@@OOoooo+oooooooooOO@@@@#@@@@@@@@@O",
"OXooooooooooooXOO+@@@@@@@@@@@@+OOXooooooooooooXOO+@@@@@@@@@@@@+O",
"OXXXXXXXXXXXXXXOO++++++++++++++OOXXXXXXXXXXXXXXOO++++++++++++++O",
".OOOOOOOOOOOOOO..OOOOOOOOOOOOOO..OOOOOOOOOOOOOO..OOOOOOOOOOOOOO.",
".OOOOOOOOOOOOOO..OOOOOOOOOOOOOO..OOOOOOOOOOOOOO..OOOOOOOOOOOOOO.",
"O##############OO++++++++++++++OO##############OO++++++++++++++O",
"O#@@@@@@@@@@@@#OO+oooooooooooo+OO#@@@@@@@@@@@@#OO+oooooooooooo+O",
"O#@@@@@@@@@@@@@OOooooooooooooooOO@@@@@@@@@@@@@#OOooooooooooooooO",
"O@@@@@@@@@@@@@@OOoooooooooo+oooOO@@@@@@@@@@@@@#OOooooooooooooooO",
"O@@@@@@@@@#@@@@OOooooooooooo+ooOO@@@@@@#@@@@@@@OOoooooooo+oooooO",
"O@@@@@@@@@@#@@@OOooo+oooooooo+oOO@@@@@@@#@@@@@@OOooooooooo+ooooO",
"O@@@@@@@@@@@#@@OOoooo+oooooooooOO@@@@@@@@#@@@@@OOoooooooooo+oooO",
"O@@#@@@@@@@@@@@OOooooo+ooooooooOO@@@@@@@@@#@@@@OOooooooooooo+ooO",
"O@@@#@@@@@@@@@@OOoooooo+oooooooOO@#@@@@@@@@#@@@OOoo+oooooooooooO",
"O@@@@#@@@@@@@@@OOooooooo+ooooooOO@@#@@@@@@@@@@@OOooo+ooooooooooO",
"O@@@@@#@@@@@@@@OOooooooooooooooOO@@@#@@@@@@@@@@OOoooo+oooooooooO",
"O@@@@@@#@@@@@@@OOooooooooooooooOO@@@@#@@@@@@@@@OOooooo+ooooooooO",
"O+@@@@@@@@@@@@+OOXooooooooooooXOO+@@@@@@@@@@@@+OOXooooooooooooXO",
"O++++++++++++++OOXXXXXXXXXXXXXXOO++++++++++++++OOXXXXXXXXXXXXXXO",
".OOOOOOOOOOOOOO..OOOOOOOOOOOOOO..OOOOOOOOOOOOOO..OOOOOOOOOOOOOO.",
".OOOOOOOOOOOOOO..OOOOOOOOOOOOOO..OOOOOOOOOOOOOO..OOOOOOOOOOOOOO.",
"O++++++++++++++OO##############OO++++++++++++++OO##############O",
"O+oooooooooooo+OO#@@@@@@@@@@@@#OO+oooooooooooo+OO#@@@@@@@@@@@@#O",
"OooooooooooooooOO@@@@@@@@@@@@@#OOooooooooooooooOO@@@@@@@@@@@@@#O",
"Ooooooo+oooooooOO@@@@@@@@@@@@@#OOooooooooooooooOO@@@@@@@@@@@@@#O",
"Oooooooo+ooooooOO@@@@@@@#@@@@@@OOoooooooo+oooooOO@@@@@@#@@@@@@@O",
"Ooooooooo+oooooOO@@@@@@@@#@@@@@OOooooooooo+ooooOO@@@@@@@#@@@@@@O",
"Oooooooooo+ooooOO@@@@@@@@@#@@@@OOoooooooooo+oooOO@@@@@@@@#@@@@@O",
"Ooooooooooo+oooOO@@#@@@@@@@#@@@OOo+ooooooooo+ooOO@@@@@@@@@#@@@@O",
"Oooo+ooooooooooOO@@@#@@@@@@@#@@OOoo+oooooooooooOO@@#@@@@@@@#@@@O",
"Ooooo+oooooooooOO@@@@#@@@@@@@@@OOooo+ooooooooooOO@@@#@@@@@@@@@@O",
"Oooooo+ooooooooOO@@@@@@@@@@@@@@OOooooooooooooooOO@@@@#@@@@@@@@@O",
"OooooooooooooooOO@@@@@@@@@@@@@@OOooooooooooooooOO@@@@@@@@@@@@@@O",
"OXooooooooooooXOO+@@@@@@@@@@@@+OOXooooooooooooXOO+@@@@@@@@@@@@+O",
"OXXXXXXXXXXXXXXOO++++++++++++++OOXXXXXXXXXXXXXXOO++++++++++++++O",
".OOOOOOOOOOOOOO..OOOOOOOOOOOOOO..OOOOOOOOOOOOOO..OOOOOOOOOOOOOO.",
".OOOOOOOOOOOOOO..OOOOOOOOOOOOOO..OOOOOOOOOOOOOO..OOOOOOOOOOOOOO.",
"O##############OO++++++++++++++OO##############OO++++++++++++++O",
"O#@@@@@@@@@@@@#OO+oooooooooooo+OO#@@@@@@@@@@@@#OO+oooooooooooo+O",
"O#@@@@@@@@@@@@@OOooooooooooooooOO#@@@@@@@@@@@@#OOooooooooooooooO",
"O#@@@@@@@@@@@@@OOooooooooo+ooooOO@@@@@@@@@@@@@@OOooooooooooooooO",
"O@@@@@@@@@@@@@@OOoooooooooo+oooOO@@@@@@@@#@@@@@OOoooooo+oooooooO",
"O@@@@@@#@@@@@@@OOooooooooooo+ooOO@@@@@@@@@#@@@@OOooooooo+ooooooO",
"O@@@@@@@#@@@@@@OOooo+ooooooooooOO@@#@@@@@@@#@@@OOoooooooo+oooooO",
"O@@@@@@@@#@@@@@OOoooo+oooooooooOO@@@#@@@@@@@#@@OOooooooooo+ooooO",
"O@@@@@@@@@#@@@@OOooooo+ooooooooOO@@@@#@@@@@@@@@OOoooooooooo+oooO",
"O@@#@@@@@@@@@@@OOoooooo+oooooooOO@@@@@#@@@@@@@@OOoo+oooooooooooO",
"O@@@#@@@@@@@@@@OOooooooooooooooOO@@@@@@#@@@@@@@OOooo+ooooooooooO",
"O@@@@@@@@@@@@@@OOooooooooooooooOO@@@@@@@@@@@@@@OOoooo+oooooooooO",
"O+@@@@@@@@@@@@+OOXooooooooooooXOO+@@@@@@@@@@@@+OOXooooooooooooXO",
"O++++++++++++++OOXXXXXXXXXXXXXXOO++++++++++++++OOXXXXXXXXXXXXXXO",
".OOOOOOOOOOOOOO..OOOOOOOOOOOOOO..OOOOOOOOOOOOOO..OOOOOOOOOOOOOO."
};
