/* XPM */
static char *_7e3647ffcae4ecccd4ff1f52f05146fNkCb5R5DqBq7kQ9y[] = {
/* columns rows colors chars-per-pixel */
"64 64 21 1 ",
"  c None",
". c black",
"X c #523E20",
"o c #665235",
"O c #8A7355",
"+ c #A3937E",
"@ c #B5A791",
"# c #BFB4BA",
"$ c #E6D6BC",
"% c #D6B8CB",
"& c #E6BCD6",
"* c #E3B1E6",
"= c #E0BAE3",
"- c #E9B3FF",
"; c #D6C3CE",
": c #D4D0CB",
"> c #EBD3ED",
", c #E9D8F0",
"< c #F5E4EE",
"1 c #FAEBF4",
"2 c white",
/* pixels */
"#;;;;;;;;;;;;;;##;;;;;;;;;;;;;;##;;;;;;;;;;;;;;##;;;;;;;;;;;;;;#",
";<<<<<<<<<<<<<<;;2222222222222 ;;<<<<<<<<<<<<<<;;22222222222222;",
";<&&&&&&&&&&&&<;;21111111111112;;<&&&&&&&&&&&&<;;21111111111112;",
";&&&&&&&&&&&&&&;;111111111...........&&&&&&&&&&;;21111111111111;",
";&&&&&&&&&&&&&&;;1111111..oooooXXoooo..&&&&&&&&;;21111111111111;",
";&<&&&&&&&&&&&&;;1....1.oooooooXXoooooo.&....&&;;11111121111111;",
";&&<&&&&&&<&&&&;;.oo++.o+ooooooXXooooo+o.++oo.&;;11111112111111;",
";&&&<&&&&&&<&&&;.oo+oo.oo+ooooooXoooo+oo.oo+oo.;;11111111211111;",
";&&&&<&&&&&&<&&;.oo+ooXooo+ooooooooo+oooXoo+oo.;;11111111121111;",
";&&&&&&&&&&&&&&;.oo+ooXoooo+++++++++ooooXoo+oo.;;11111111112111;",
";&&&&&&&&&&&&&&;.ooo+oXoooooooooooooooooXo+ooo.;;11211111111111;",
";&&&&&&&&&&&&&&;.ooooooXooo...oooo...ooXoooooo.;;11121111111111;",
";&&&&&&&&&&&&&&;.oooooooXXX.@@....@@.XXooooooo.;;11112111111111;",
";%&&&&&&&&&&&&%;;.-oXXo-ooX.@$.@@.@$.Xo-oXXo-.%;;<111111111111<;",
";%%%%%%%%%%%%%%;.oo----oooX.$$$$$$$$.Xoo----oo.;;<<<<<<<<<<<<<<;",
"#;;;;;;;;;;;;;;#.ooooooooXX.$$$$$$$$.XXooooooo.##;;;;;;;;;;;;;;#",
"#;;;;;;;;;;;;;;#.oooooooX..$$$$$$$$$$..Xoooooo.##;;;;;;;;;;;;;;#",
";22222222222222;.ooOoooo.$$$$$$$$$$$$$$.oooOoo.;;<<<<<<<<<<<<<<;",
";21111111111112;.oOoooo.@$$$.2$$$$.2$$$@.oooOo.;;<&&&&&&&&&&&&<;",
";21111111111111;.oOoooo.@$$$..$$$$..$$$@.oooOo.;;&&&&&&&&&&&&&&;",
";11111111111111;.oooooo.@$,,$$$$$$$$,,$@.ooooo.;;&&&&&&&&&&&&&&;",
";11111111121111;.ooOoooo.@$$$$$$$$$$$$@.oooOoo.;;&&&&&&&&<&&&&&;",
";11111111112111;..ooooooo.$$$$$$$$$$$$.oooooo..;;&&&&&&&&&<&&&&;",
";11111111111211;;.oooooooX.@$$$$$$$@@.Xoooooo.1;;&&&&&&&&&&<&&&;",
";11211111111111;;&.oooooXXX..@@@@@@..XXoooooo.1;;&&&&&&&&&&&<&&;",
";11121111111111;...........**......**.XXoooo.11;;&&<&&&&&&&&&&&;",
";11112111111111.$$$$$$@@*=>>=******==>......111;;&&&<&&&&&&&&&&;",
";1111121111111.$$$$$$$$@*=>>>======>>>=.1111111;;&&&&<&&&&&&&&&;",
";1111112111111.$$@........=>=>>>>>>=>==*.111111;;&&&&&<&&&&&&&&;",
";<111111111111.@@.&&&&&&&&.=>>>>>>>>..*@$.1111<;;%&&&&&&&&&&&&%;",
";<<<<<<<<<<<<<<..%%%%%%%%%.>>>>>>>>>.<.@$$.<<<<;;%%%%%%%%%%%%%%;",
"#;;;;;;;;;;;;;;##;;;;;;;;;.>>>>>>>>>.;;.@$$.;;;##;;;;;;;;;;;;;;#",
"#;;;;;;;;;;;;;;##;;;;;;;;;.>>>>>>>>>.;;;.@$$..;##;;;;;;;;;;;;;;#",
";<<<<<<<<<<<<<<;;222222222.=>>>>>>>=.<<<<.@$$$.;;22222222222222;",
";<&&&&&&&&&&&&<;;2111111...*=>===>=*...&&&.$$$.;;21111111111112;",
";&&&&&&&&&&&&&&;;111111.>>>>*******>>>>.&&.$$$.;;11111111111112;",
";&&&&&&<&&&&&&&;;11111.>>>>>>>>>>>>>>>>>.&&...&;;11111111111112;",
";&&&&&&&<&&&&&&;;1111.>>>>>>>>>>>>>>>>>>>.&&&&&;;11111121111111;",
";&&&&&&&&<&&&&&;;111.=>>>>>>>>>>>>>>>>>>>=.&&&&;;11111112111111;",
";&&&&&&&&&<&&&&;;11.=>*>>>>>>>>>>>>>>>>>*>=.&&&;;11111111211111;",
";&&&&&&&&&&<&&&;;1.=>*=>>>>>>>>>>>>>>>>>=*>=.&&;;11111111121111;",
";&&&<&&&&&&&&&&;;1.=*=>>>>*>>>>>>>>>*>>>>=*=.&&;;11211111112111;",
";&&&&<&&&&&&&&&;;11.=>>>>*=>>>>>>>>>=*>>>>=.&&&;;11121111111111;",
";&&&&&<&&&&&&&&;;111.===*=>>>>>>>>>>>=*===.&&&&;;11112111111111;",
";&&&&&&&&&&&&&&;;1111...===>>>>>>>>====...&&&&&;;11111111111111;",
";%&&&&&&&&&&&&%;;<111111...=========...&&&&&&&%;;<111111111111<;",
";%%%%%%%%%%%%%%;;<<<<<<<<<...........%%%%%%%%%%;;<<<<<<<<<<<<<<;",
"#;;;;;;;;;;;;;;##;;;;;;;;;.@@@@.@@@@.;;;;;;;;;;##;;;;;;;;;;;;;;#",
"#;;;;;;;;;;;;;;##;;;;;;;;;.$$$$.....;;;;;;;;;;;##;;;;;;;;;;;;;;#",
";22222222222222;;<<<<<<<<<.$$$$.;22222222222222;;<<<<<<<<<<<<<<;",
";21111111111112;;<&&&&&&&&.@$$@.;21111111111112;;<&&&&&&&&&&&&<;",
";21111111111111;;&&&&&&&&&.@@@@.;21111111111112;;&&&&&&&&&&&&&&;",
";21111111111111;;&&&&&&&&&.====.;11111111111111;;&&&&&&&&&&&&&&;",
";11111111111111;;&&&&&&&&&.*==*.::1111111211111;;&&&&&&<&&&&&&&;",
";11111121111111;;&&&&&:::::.**.:::::::111121111;;&&&&&&&<&&&&&&;",
";11111112111111;;&&&::::::::..::::::::111112111;;&&&&&&&&<&&&&&;",
";11111111211111;;&&&:::::::::::::::::::11111211;;&&&&&&&&&<&&&&;",
";11111111121111;;&&&:::::::::::::::::::11111111;;&&&&&&&&&&<&&&;",
";11211111111111;;&&::::::::::::::::::::11111111;;&&<&&&&&&&&&&&;",
";11121111111111;;&&&:::::::::::::::::::21111111;;&&&<&&&&&&&&&&;",
";11111111111111;;&&&&:::::::::::::::::111111111;;&&&&<&&&&&&&&&;",
";<111111111111<;;%&&&&&&:::::::::::11111111111<;;%&&&&&&&&&&&&%;",
";<<<<<<<<<<<<<<;;%%%%%%%%::::::::::<<<<<<<<<<<<;;%%%%%%%%%%%%%%;",
"#;;;;;;;;;;;;;;##;;;;;;;;;;;;;;##;;;;;;;;;;;;;;##;;;;;;;;;;;;;;#"
};
