/* XPM */
static char *_d37fe08b6a8401fe1a809c4acab1fbccMAYOjaHXT6vLGBv[] = {
/* columns rows colors chars-per-pixel */
"64 64 19 1 ",
"  c None",
". c black",
"X c #523E20",
"o c #665235",
"O c #A3937E",
"+ c #B5A791",
"@ c #BFB4BA",
"# c #E6D6BC",
"$ c #D6B8CB",
"% c #E6BCD6",
"& c #E3B1E6",
"* c #E0BAE3",
"= c #E9B3FF",
"- c #D6C3CE",
"; c #D4D0CB",
": c #EBD3ED",
"> c #F5E4EE",
", c #FAEBF4",
"< c white",
/* pixels */
"@--------------@@--------------@@--------------@@--------------@",
"->>>>>>>>>>>>>>--<<<<<<<<<<<<< -->>>>>>>>>>>>>>--<<<<<<<<<<<<<<-",
"->%%%%%%%%%%%%>--<,,,,,,,,,,,,<-->%%%%%%%%%%%%>--<,,,,,,,,,,,,<-",
"-%%%%%%%%%%%%%%--,,,,,,,,,,,,.......%%%%%%%%%%%--<,,,,,,,,,,,,,-",
"-%%%%%%%%%%%%%%--,,,,,,,,,,,.ooooooo.%%%%%%%%%%--<,,,,,,,,,,,,,-",
"-%>%%%%%%%%%%%%--,,,,,,,,,,,.OoooooOo.%%%%%%%%%--,,,,,,<,,,,,,,-",
"-%%>%%%%%%>%%%%--,,<,,,,,,<.......Ooo.%%>%%%%%%--,,,,,,,<,,,,,,-",
"-%%%>%%%%%%>%%%--,,,<,,,...ooooooo....%%%>%%%%%--,,,,,,,,<,,,,,-",
"-%%%%>%%%%%%>%%--,,,,<,.oooooXXXooooo.%%%%>%%%%--,,,,,,,,,<,,,,-",
"-%%%%%%%%%%%%%%--,,,,,.ooooooooooooooo.%%%%>%%%--,,,,,,,,,,<,,,-",
"-%%%%%%%%%%%%%%--,,,,.OoooooooXXXXXXooo.%%%%%%%--,,<,,,,,,,,,,,-",
"-%%%%%%%%%%%%%%--,,,.ooOoooooX......XooO.%%%%%%--,,,<,,,,,,,,,,-",
"-%%%%%%%%%%%%%%--,,,.oooOOOOo.oooooo.oOoo.%%%%%--,,,,<,,,,,,,,,-",
"-$%%%%%%%%%%%%$-->,,.ooooooo.oOooooOo.ooo.%%%%$-->,,,,,,,,,,,,>-",
"-$$$$$$$$$$$$$$-->>.oooooooo.ooOOOOoo.ooo.$$$$$-->>>>>>>>>>>>>>-",
"@--------------@@--.ooo..ooo.oooooooo.ooo.-----@@--------------@",
"@--------------@@--.ooo.+..o.oooooooo.ooo.-----@@--------------@",
"-<<<<<<<<<<<<<<-->>.ooo.++.o.oooooooo.ooo.<<<<<-->>>>>>>>>>>>>>-",
"-<,,,,,,,,,,,,<-->%%..o.++...oooooooo.ooo.,,,,<-->%%%%%%%%%%%%>-",
"-<,,,,,,,,,,,,,--%%%.+.+#+.++.oooooo.=ooo.,,,,<--%%%%%%%%%%%%%%-",
"-,,,,,,,,,,,,,,--%%%.########=......=ooo.,,,,,<--%%%%%%%%%%%%%%-",
"-,,,,,,,,,<,,,,--%%%.##<.#####======oooo.,,,,,,--%%%%%%%%>%%%%%-",
"-,,,,,,,,,,<,,,--%%%.##..#####+.ooooooooo.,,,,,--%%%%%%%%%>%%%%-",
"-,,,,,,,,,,,<,,--%%%.##..#####+.oooooooooo.,,,,--%%%%%%%%%%>%%%-",
"-,,<,,,,,,,,,,,--%%%.#########+.oooOoooOoo.,,,,--%%%%%%%%%%%>%%-",
"-,,,<,,,,,,,,,,--%%%.#########+.oooOooooOoo.,,,--%%>%%%%%%%%%%%-",
"-,,,,<,,,,,,,,,--%%%.#########+.XooOooooOoo.,,,--%%%>%%%%%%%%%%-",
"-,,,,,<,,,,,,,,--%%%%.#######+.XXXooOooOoooo.,,--%%%%>%%%%%%%%%-",
"-,,,,,,<,,,,,,,--%%%%%........&...ooooooooo.,,,--%%%%%>%%%%%%%%-",
"->,,,,,,,,,,,,>--$%%%%%%%%.&&&:.:..ooooooo.,,,>--$%%%%%%%%%%%%$-",
"->>>>>>>>>>>>>>--$$$$$$$$$.:::.::.>..oooo.>>>>>--$$$$$$$$$$$$$$-",
"@--------------@@---------.::.:::.---....------@@--------------@",
"@--------------@@---------.:.*:::.-------------@@--------------@",
"->>>>>>>>>>>>>>--<<<<<<<<<..&**.:.>>>>>>>>>>>>>--<<<<<<<<<<<<<<-",
"->%%%%%%%%%%%%>--<,,,,,,,,.##&.:*.%%%%%%%%%%%%>--<,,,,,,,,,,,,<-",
"-%%%%%%%%%%%%%%--,,,,,,,,.##+.**&..%%%%%%%%%%%%--,,,,,,,,,,,,,<-",
"-%%%%%%>%%%%%%%--,,,,,,,.##+.&&&:::..%%%%%%%%%%--,,,,,,,,,,,,,<-",
"-%%%%%%%>%%%%%%--,,,,,..##+.:::::::::.%%%>%%%%%--,,,,,,<,,,,,,,-",
"-%%%%%%%%>%%%%%--,,,,.###+.:::::::::::.%%%>%%%%--,,,,,,,<,,,,,,-",
"-%%%%%%%%%>%%%%--,,,,.##+.:::::::::::::.%%%>%%%--,,,,,,,,<,,,,,-",
"-%%%%%%%%%%>%%%--,,<,.#++.::::::::::::::.%%%>%%--,,,,,,,,,<,,,,-",
"-%%%>%%%%%%%%%%--,,,<....:::::::::::::::*.%%%%%--,,<,,,,,,,<,,,-",
"-%%%%>%%%%%%%%%--,,,.*::::::::::::::&::&:*.%%%%--,,,<,,,,,,,,,,-",
"-%%%%%>%%%%%%%%--,,,.*:::&::::::::&::&::&*.%%%%--,,,,<,,,,,,,,,-",
"-%%%%%%%%%%%%%%--,,,.*::&::::::::::&::***.%%%%%--,,,,,,,,,,,,,,-",
"-$%%%%%%%%%%%%$-->,,,.**::::::::::::***..%%%%%$-->,,,,,,,,,,,,>-",
"-$$$$$$$$$$$$$$-->>>>>..************...$$$$$$$$-->>>>>>>>>>>>>>-",
"@--------------@@-------............+.---------@@--------------@",
"@--------------@@--------.+++.-@@.+++.---------@@--------------@",
"-<<<<<<<<<<<<<<-->>>>>>>.###.>>--<.###.<<<<<<<<-->>>>>>>>>>>>>>-",
"-<,,,,,,,,,,,,<-->%%%%%%.###.%>--<.###.,,,,,,,<-->%%%%%%%%%%%%>-",
"-<,,,,,,,,,,,,,--%%%%%%.###.%%%--<,.###.,,,,,,<--%%%%%%%%%%%%%%-",
"-<,,,,,,,,,,,,,--%%%%%%.###.%%%--,,.###.,,,,,,,--%%%%%%%%%%%%%%-",
"-,,,,,,,,,,,,,,--%%%%%.###.>%%%--,,,.###.<,,,,,--%%%%%%>%%%%%%%-",
"-,,,,,,<,,,,,,,--%%%%%.###.%>%%--,,,.###.,<,,,,--%%%%%%%>%%%%%%-",
"-,,,,,,,<,,,,,,--%%%..:::.%%%%%--,,<,.:::.,<,,,--%%%%%%%%>%%%%%-",
"-,,,,,,,,<,,,,,--%%.****.;;;;;;;;;;;.***..,,<,,--%%%%%%%%%>%%%%-",
"-,,,,,,,,,<,,,,--%;;.....;;;;;;;;;;;;....;;,,,,--%%%%%%%%%%>%%%-",
"-,,<,,,,,,,,,,,--;;;;;;;;;;;;;;;;;;;;;;;;;;;,,,--%%>%%%%%%%%%%%-",
"-,,,<,,,,,,,,,,--;;;;;;;;;;;;;;;;;;;;;;;;;;;;,,--%%%>%%%%%%%%%%-",
"-,,,,,,,,,,,,,,--;;;;;;;;;;;;;;;;;;;;;;;;;;;;,,--%%%%>%%%%%%%%%-",
"->,,,,,,,,,,,,>--$;;;;;;;;;;;;;;;;;;;;;;;;;;,,>--$%%%%%%%%%%%%$-",
"->>>>>>>>>>>>>>--$$$;;;;;;;;;;;;;;;;;;;;;;>>>>>--$$$$$$$$$$$$$$-",
"@--------------@@--------------@@--------------@@--------------@"
};
