/* XPM */
static char *_a58f535686a47edd13ebc60a3d19246offKkgWpAJ9IwdBm[] = {
/* columns rows colors chars-per-pixel */
"64 64 20 1 ",
"  c None",
". c black",
"X c #523E20",
"o c #665235",
"O c #8A7355",
"+ c #A3937E",
"@ c #B5A791",
"# c #BFB4BA",
"$ c #E6D6BC",
"% c #D6B8CB",
"& c #E6BCD6",
"* c #E3B1E6",
"= c #E0BAE3",
"- c #E9B3FF",
"; c #D6C3CE",
": c #D4D0CB",
"> c #EBD3ED",
", c #F5E4EE",
"< c #FAEBF4",
"1 c white",
/* pixels */
"#;;;;;;;;;;;;;;##;;;;;;;;;;;;;;##;;;;;;;;;;;;;;##;;;;;;;;;;;;;;#",
";,,,,,,,,,,,,,,;;1111111111111 ;;,,,,,,,,,,,,,,;;11111111111111;",
";,&&&&&&&&&&&&,;;1<<<<<<<<<<<<1;;,&&&&&&&&&&&&,;;1<<<<<<<<<<<<1;",
";&&&&&&&&&&&&&&;;<<<<<<<<<...........&&&&&&&&&&;;1<<<<<<<<<<<<<;",
";&&&&&&&&&&&&&&;;<<<<<<<..oooooXXoooo..&&&&&&&&;;1<<<<<<<<<<<<<;",
";&,&&&&&&&&&&&&;;<....<.oooooooXXoooooo.&....&&;;<<<<<<1<<<<<<<;",
";&&,&&&&&&,&&&&;;.oo++.o+ooooooXXooooo+o.++oo.&;;<<<<<<<1<<<<<<;",
";&&&,&&&&&&,&&&;.oo+oo.oo+ooooooXoooo+oo.oo+oo.;;<<<<<<<<1<<<<<;",
";&&&&,&&&&&&,&&;.oo+ooXooo+ooooooooo+oooXoo+oo.;;<<<<<<<<<1<<<<;",
";&&&&&&&&&&&&&&;.oo+ooXoooo+++++++++ooooXoo+oo.;;<<<<<<<<<<1<<<;",
";&&&&&&&&&&&&&&;.ooo+oXoooooooooooooooooXo+ooo.;;<<1<<<<<<<<<<<;",
";&&&&&&&&&&&&&&;.ooooooXoooooooooooooooXoooooo.;;<<<1<<<<<<<<<<;",
";&&&&&&&&&&&&&&;.oooooooXXXoooooooooXXXooooooo.;;<<<<1<<<<<<<<<;",
";%&&&&&&&&&&&&%;;.-oXXo-ooooooooooooooo-oXXo-.%;;,<<<<<<<<<<<<,;",
";%%%%%%%%%%%%%%;.oX----XoooooooooooooooX----Xo.;;,,,,,,,,,,,,,,;",
"#;;;;;;;;;;;;;;#.ooXXXXoooooooooooooooooXXXXoo.##;;;;;;;;;;;;;;#",
"#;;;;;;;;;;;;;;#.oooooooooooOooooooOoooooooooo.##;;;;;;;;;;;;;;#",
";11111111111111;.ooOoooooooOooooooooOooooooOoo.;;,,,,,,,,,,,,,,;",
";1<<<<<<<<<<<<1;.oOoooooooooooooooooooooooooOo.;;,&&&&&&&&&&&&,;",
";1<<<<<<<<<<<<<;.oOooooooooOooooooooOoooooooOo.;;&&&&&&&&&&&&&&;",
";<<<<<<<<<<<<<<;.ooooooooooooooooooooooooooooo.;;&&&&&&&&&&&&&&;",
";<<<<<<<<<1<<<<;.ooOoooooooooOooooOooooooooOoo.;;&&&&&&&&,&&&&&;",
";<<<<<<<<<<1<<<;..ooooooooooooooooooooooooooo..;;&&&&&&&&&,&&&&;",
";<<<<<<<<<<<1<<;;.oooooooooOooooooooOoooooooo.<;;&&&&&&&&&&,&&&;",
";<<1<<<<<<<<<<<;;&.ooooooooOooooooooOoooooooo.<;;&&&&&&&&&&&,&&;",
";<<<1<<<<<<<<<<;.......oooooOooooooOooooooo..<<;;&&,&&&&&&&&&&&;",
";<<<<1<<<<<<<<<.$$$$$$@....................<<<<;;&&&,&&&&&&&&&&;",
";<<<<<1<<<<<<<.$$$$$$$$@*=>>>======>>>=.<<<<<<<;;&&&&,&&&&&&&&&;",
";<<<<<<1<<<<<<.$$@........=>=>>>>>>=>==*.<<<<<<;;&&&&&,&&&&&&&&;",
";,<<<<<<<<<<<<.@@.&&&&&&&&.=>>>>>>>>..*@$.<<<<,;;%&&&&&&&&&&&&%;",
";,,,,,,,,,,,,,,..%%%%%%%%%.>>>>>>>>>.,.@$$.,,,,;;%%%%%%%%%%%%%%;",
"#;;;;;;;;;;;;;;##;;;;;;;;;.>>>>>>>>>.;;.@$$.;;;##;;;;;;;;;;;;;;#",
"#;;;;;;;;;;;;;;##;;;;;;;;;.>>>>>>>>>.;;;.@$$..;##;;;;;;;;;;;;;;#",
";,,,,,,,,,,,,,,;;111111111.=>>>>>>>=.,,,,.@$$$.;;11111111111111;",
";,&&&&&&&&&&&&,;;1<<<<<<...*=>===>=*...&&&.$$$.;;1<<<<<<<<<<<<1;",
";&&&&&&&&&&&&&&;;<<<<<<.>>>>*******>>>>.&&.$$$.;;<<<<<<<<<<<<<1;",
";&&&&&&,&&&&&&&;;<<<<<.>>>>>>>>>>>>>>>>>.&&...&;;<<<<<<<<<<<<<1;",
";&&&&&&&,&&&&&&;;<<<<.>>>>>>>>>>>>>>>>>>>.&&&&&;;<<<<<<1<<<<<<<;",
";&&&&&&&&,&&&&&;;<<<.=>>>>>>>>>>>>>>>>>>>=.&&&&;;<<<<<<<1<<<<<<;",
";&&&&&&&&&,&&&&;;<<.=>*>>>>>>>>>>>>>>>>>*>=.&&&;;<<<<<<<<1<<<<<;",
";&&&&&&&&&&,&&&;;<.=>*=>>>>>>>>>>>>>>>>>=*>=.&&;;<<<<<<<<<1<<<<;",
";&&&,&&&&&&&&&&;;<.=*=>>>>*>>>>>>>>>*>>>>=*=.&&;;<<1<<<<<<<1<<<;",
";&&&&,&&&&&&&&&;;<<.=>>>>*=>>>>>>>>>=*>>>>=.&&&;;<<<1<<<<<<<<<<;",
";&&&&&,&&&&&&&&;;<<<.===*=>>>>>>>>>>>=*===.&&&&;;<<<<1<<<<<<<<<;",
";&&&&&&&&&&&&&&;;<<<<...===>>>>>>>>====...&&&&&;;<<<<<<<<<<<<<<;",
";%&&&&&&&&&&&&%;;,<<<<<<...=========...&&&&&&&%;;,<<<<<<<<<<<<,;",
";%%%%%%%%%%%%%%;;,,,,,,,,,...........%%%%%%%%%%;;,,,,,,,,,,,,,,;",
"#;;;;;;;;;;;;;;##;;;;;;;;;.@@@@.@@@@.;;;;;;;;;;##;;;;;;;;;;;;;;#",
"#;;;;;;;;;;;;;;##;;;;;;;;;.$$$$.....;;;;;;;;;;;##;;;;;;;;;;;;;;#",
";11111111111111;;,,,,,,,,,.$$$$.;11111111111111;;,,,,,,,,,,,,,,;",
";1<<<<<<<<<<<<1;;,&&&&&&&&.@$$@.;1<<<<<<<<<<<<1;;,&&&&&&&&&&&&,;",
";1<<<<<<<<<<<<<;;&&&&&&&&&.@@@@.;1<<<<<<<<<<<<1;;&&&&&&&&&&&&&&;",
";1<<<<<<<<<<<<<;;&&&&&&&&&.====.;<<<<<<<<<<<<<<;;&&&&&&&&&&&&&&;",
";<<<<<<<<<<<<<<;;&&&&&&&&&.*==*.::<<<<<<<1<<<<<;;&&&&&&,&&&&&&&;",
";<<<<<<1<<<<<<<;;&&&&&:::::.**.:::::::<<<<1<<<<;;&&&&&&&,&&&&&&;",
";<<<<<<<1<<<<<<;;&&&::::::::..::::::::<<<<<1<<<;;&&&&&&&&,&&&&&;",
";<<<<<<<<1<<<<<;;&&&:::::::::::::::::::<<<<<1<<;;&&&&&&&&&,&&&&;",
";<<<<<<<<<1<<<<;;&&&:::::::::::::::::::<<<<<<<<;;&&&&&&&&&&,&&&;",
";<<1<<<<<<<<<<<;;&&::::::::::::::::::::<<<<<<<<;;&&,&&&&&&&&&&&;",
";<<<1<<<<<<<<<<;;&&&:::::::::::::::::::1<<<<<<<;;&&&,&&&&&&&&&&;",
";<<<<<<<<<<<<<<;;&&&&:::::::::::::::::<<<<<<<<<;;&&&&,&&&&&&&&&;",
";,<<<<<<<<<<<<,;;%&&&&&&:::::::::::<<<<<<<<<<<,;;%&&&&&&&&&&&&%;",
";,,,,,,,,,,,,,,;;%%%%%%%%::::::::::,,,,,,,,,,,,;;%%%%%%%%%%%%%%;",
"#;;;;;;;;;;;;;;##;;;;;;;;;;;;;;##;;;;;;;;;;;;;;##;;;;;;;;;;;;;;#"
};
