/* XPM */
static char *_7d87d372e20478ca4eddd6aa686d5cap8Gc5JrONGLc8AMm[] = {
/* columns rows colors chars-per-pixel */
"64 64 19 1 ",
"  c None",
". c black",
"X c #523E20",
"o c #665235",
"O c #A3937E",
"+ c #B5A791",
"@ c #BFB4BA",
"# c #E6D6BC",
"$ c #D6B8CB",
"% c #E6BCD6",
"& c #E3B1E6",
"* c #E0BAE3",
"= c #E9B3FF",
"- c #D6C3CE",
"; c #D4D0CB",
": c #EBD3ED",
"> c #F5E4EE",
", c #FAEBF4",
"< c white",
/* pixels */
"@--------------@@--------------@@--------------@@--------------@",
"->>>>>>>>>>>>>>--<<<<<<<<<<<<< -->>>>>>>>>>>>>>--<<<<<<<<<<<<<<-",
"->%%%%%%%%%%%%>--<,,,,,,,,,,,,<-->%%%%%%%%%%%%>--<,,,,,,,,,,,,<-",
"-%%%%%%%%%%%%%%--,,,,,,,,,,,.......%%%%%%%%%%%%--<,,,,,,,,,,,,,-",
"-%%%%%%%%%%%%%%--,,,,,,,,,,.ooooooo.%%%%%%%%%%%--<,,,,,,,,,,,,,-",
"-%>%%%%%%%%%%%%--,,,,,,,,,.oOoooooO.%%%%%%%%%%%--,,,,,,<,,,,,,,-",
"-%%>%%%%%%>%%%%--,,<,,,,,,.ooO.......%%%>%%%%%%--,,,,,,,<,,,,,,-",
"-%%%>%%%%%%>%%%--,,,<,,,,,....ooooooo...%>%%%%%--,,,,,,,,<,,,,,-",
"-%%%%>%%%%%%>%%--,,,,<,,,,.oooooXXXooooo.%>%%%%--,,,,,,,,,<,,,,-",
"-%%%%%%%%%%%%%%--,,,,,<,,.ooooooooooooooo.%>%%%--,,,,,,,,,,<,,,-",
"-%%%%%%%%%%%%%%--,,,,,,<.oooXXXXXXoooooooO.%%%%--,,<,,,,,,,,,,,-",
"-%%%%%%%%%%%%%%--,,,,,,.OooX......XoooooOoo.%%%--,,,<,,,,,,,,,,-",
"-%%%%%%%%%%%%%%--,,,,,.ooOo.oooooo.oOOOOooo.%%%--,,,,<,,,,,,,,,-",
"-$%%%%%%%%%%%%$-->,,,,.ooo.oOooooOo.ooooooo.%%$-->,,,,,,,,,,,,>-",
"-$$$$$$$$$$$$$$-->>>>>.ooo.ooOOOOoo.oooooooo.$$-->>>>>>>>>>>>>>-",
"@--------------@@-----.ooo.oooooooo.ooo..ooo.--@@--------------@",
"@--------------@@-----.ooo.oooooooo.o..+.ooo.--@@--------------@",
"-<<<<<<<<<<<<<<-->>>>>.ooo.oooooooo.o.++.ooo.<<-->>>>>>>>>>>>>>-",
"-<,,,,,,,,,,,,<-->%%%%.ooo.oooooooo...++.o..,,<-->%%%%%%%%%%%%>-",
"-<,,,,,,,,,,,,,--%%%%%.ooo=.oooooo.++.+#+.+.,,<--%%%%%%%%%%%%%%-",
"-,,,,,,,,,,,,,,--%%%%%%.ooo=......=########.,,<--%%%%%%%%%%%%%%-",
"-,,,,,,,,,<,,,,--%%%%%%.oooo======#####.<##.,,,--%%%%%%%%>%%%%%-",
"-,,,,,,,,,,<,,,--%%%>%.ooooooooo.+#####..##.,,,--%%%%%%%%%>%%%%-",
"-,,,,,,,,,,,<,,--%%%%.oooooooooo.+#####..##.,,,--%%%%%%%%%%>%%%-",
"-,,<,,,,,,,,,,,--%%%%.ooOoooOooo.+#########.,,,--%%%%%%%%%%%>%%-",
"-,,,<,,,,,,,,,,--%%%.ooOooooOooo.+#########.,,,--%%>%%%%%%%%%%%-",
"-,,,,<,,,,,,,,,--%%%.ooOooooOooX.+#########.,,,--%%%>%%%%%%%%%%-",
"-,,,,,<,,,,,,,,--%%.ooooOooOooXXX.+#######.,,,,--%%%%>%%%%%%%%%-",
"-,,,,,,<,,,,,,,--%%%.ooooooooo...&........,,,,,--%%%%%>%%%%%%%%-",
"->,,,,,,,,,,,,>--$%%%.ooooooo..:.:&&&.,,,,,,,,>--$%%%%%%%%%%%%$-",
"->>>>>>>>>>>>>>--$$$$$.oooo..$.::.:::.>>>>>>>>>--$$$$$$$$$$$$$$-",
"@--------------@@------....---.:::.::.---------@@--------------@",
"@--------------@@-------------.:::*.:.---------@@--------------@",
"->>>>>>>>>>>>>>--<<<<<<<<<<<<<.:.**&..>>>>>>>>>--<<<<<<<<<<<<<<-",
"->%%%%%%%%%%%%>--<,,,,,,,,,,,,.*:.&##.%%%%%%%%>--<,,,,,,,,,,,,<-",
"-%%%%%%%%%%%%%%--,,,,,,,,,,,,..&**.+##.%%%%%%%%--,,,,,,,,,,,,,<-",
"-%%%%%%>%%%%%%%--,,,,,,,,,,..:::&&&.+##.%%%%%%%--,,,,,,,,,,,,,<-",
"-%%%%%%%>%%%%%%--,,,,,,,<,.:::::::::.+##..%%%%%--,,,,,,<,,,,,,,-",
"-%%%%%%%%>%%%%%--,,,,,,,,.:::::::::::.+###.%%%%--,,,,,,,<,,,,,,-",
"-%%%%%%%%%>%%%%--,,,,,,,.:::::::::::::.+##.>%%%--,,,,,,,,<,,,,,-",
"-%%%%%%%%%%>%%%--,,<,,,.::::::::::::::.++#.%>%%--,,,,,,,,,<,,,,-",
"-%%%>%%%%%%%%%%--,,,<,.*:::::::::::::::....%%%%--,,<,,,,,,,<,,,-",
"-%%%%>%%%%%%%%%--,,,,.*:&::&::::::::::::::*.%%%--,,,<,,,,,,,,,,-",
"-%%%%%>%%%%%%%%--,,,,.*&::&::&::::::::&:::*.%%%--,,,,<,,,,,,,,,-",
"-%%%%%%%%%%%%%%--,,,,,.***::&::::::::::&::*.%%%--,,,,,,,,,,,,,,-",
"-$%%%%%%%%%%%%$-->,,,,,..***::::::::::::**.%%%$-->,,,,,,,,,,,,>-",
"-$$$$$$$$$$$$$$-->>>>>>>>...************..$$$$$-->>>>>>>>>>>>>>-",
"@--------------@@---------.+............-------@@--------------@",
"@--------------@@---------.+++.@@-.+++.--------@@--------------@",
"-<<<<<<<<<<<<<<-->>>>>>>>.###.>--<<.###.<<<<<<<-->>>>>>>>>>>>>>-",
"-<,,,,,,,,,,,,<-->%%%%%%%.###.>--<,.###.,,,,,,<-->%%%%%%%%%%%%>-",
"-<,,,,,,,,,,,,,--%%%%%%%.###.%%--<,,.###.,,,,,<--%%%%%%%%%%%%%%-",
"-<,,,,,,,,,,,,,--%%%%%%%.###.%%--,,,.###.,,,,,,--%%%%%%%%%%%%%%-",
"-,,,,,,,,,,,,,,--%%%%%%.###.%%%--,,,,.###.,,,,,--%%%%%%>%%%%%%%-",
"-,,,,,,<,,,,,,,--%%%%%%.###.>%%--,,,,.###.<,,,,--%%%%%%%>%%%%%%-",
"-,,,,,,,<,,,,,,--%%%>%.:::.%%%%--,,<,,.:::..,,,--%%%%%%%%>%%%%%-",
"-,,,,,,,,<,,,,,--%%%%>..***.;;;;;;;;;;;.****.,,--%%%%%%%%%>%%%%-",
"-,,,,,,,,,<,,,,--%%%%;;....;;;;;;;;;;;;.....;;,--%%%%%%%%%%>%%%-",
"-,,<,,,,,,,,,,,--%%%;;;;;;;;;;;;;;;;;;;;;;;;;;;--%%>%%%%%%%%%%%-",
"-,,,<,,,,,,,,,,--%%;;;;;;;;;;;;;;;;;;;;;;;;;;;;--%%%>%%%%%%%%%%-",
"-,,,,,,,,,,,,,,--%%;;;;;;;;;;;;;;;;;;;;;;;;;;;;--%%%%>%%%%%%%%%-",
"->,,,,,,,,,,,,>--$%%;;;;;;;;;;;;;;;;;;;;;;;;;;>--$%%%%%%%%%%%%$-",
"->>>>>>>>>>>>>>--$$$$$;;;;;;;;;;;;;;;;;;;;;;>>>--$$$$$$$$$$$$$$-",
"@--------------@@--------------@@--------------@@--------------@"
};
