/* XPM */
static char *bdafab931e424392d7e8dcd2857433f4rD0CGNKFCv9FVXOF[] = {
/* columns rows colors chars-per-pixel */
"64 64 7 1 ",
"  c None",
". c #6B5038",
"X c #9C7E65",
"o c #AD8B71",
"O c #BFA48E",
"+ c #E0ABC7",
"@ c #FCF2F8",
/* pixels */
" .............................................................. ",
".XXXXXXXXXXXXXXXXXXXXXXXXXXXXXXXXXXXXXXXXXXXXXXXXXXXXXXXXXXXXXX.",
".XXXXXXXXXXXXXXXXXXXXXXXXXXXXXXXXXXXXXXXXXXXXXXXXXXXXXXXXXXXXXX.",
".XXXXXXXXXXXXXXXXXXXXXXXXXXXXXXXXXXXXXXXXXXXXXXXXXXXXXXXXXXXXXX.",
".oooooooooooooooooooooooooooooooooooooooooooooooooooooooooooooo.",
".OOOOOOOOOOOOOOOOOOOOOOOOOOOOOOOOOOOOOOOOOOOOOOOOOOOOOOOOOOOOOO.",
" .............................................................. ",
".XXXoO.+++@@@+++@@@+++@@@+++@@@+++@@@+++@@@+++@@@+++@@@++.OoXXX.",
".XXXoO.+++@@@+++@@@+++@@@+++@@@+++@@@+++@@@+++@@@+++@@@++.OoXXX.",
".XXXoO.+++@@@+++@@@+++@@@+++@@@+++@@@+++@@@+++@@@+++@@@++.OoXXX.",
".XXXoO.+++@@@+++@@@+++@@@+++@@@+++@@@+++@@@+++@@@+++@@@++.OoXXX.",
".XXXoO.+++@@@+++@@@+++@@@+++@@@+++@@@+++@@@+++@@@+++@@@++.OoXXX.",
".XXXoO.+++@@@+++@@@+++@@@+++@@@+++@@@+++@@@+++@@@+++@@@++.OoXXX.",
".XXXoO.+++@@@+++@@@+++@@@+++@@@+++@@@+++@@@+++@@@+++@@@++.OoXXX.",
".XXXoO.+++@@@+++@@@+++@@@+++@@@+++@@@+++@@@+++@@@+++@@@++.OoXXX.",
".XXXoO.+++@@@+++@@@+++@@@+++@@@+++@@@+++@@@+++@@@+++@@@++.OoXXX.",
".XXXoO.+++@@@+++@@@+++@@@+++@@@+++@@@+++@@@+++@@@+++@@@++.OoXXX.",
".XXXoO.+++@@@+++@@@+++@@@+++@@@+++@@@+++@@@+++@@@+++@@@++.OoXXX.",
".XXXoO.+++@@@+++@@@+++@@@+++@@@+++@@@+++@@@+++@@@+++@@@++.OoXXX.",
".XXXoO.+++@@@+++@@@+++@@@+++@@@+++@@@+++@@@+++@@@+++@@@++.OoXXX.",
".XXXoO.+++@@@+++@@@+++@@@+++@@@+++@@@+++@@@+++@@@+++@@@++.OoXXX.",
".XXXoO.+++@@@+++@@@+++@@@+++@@@+++@@@+++@@@+++@@@+++@@@++.OoXXX.",
".XXXoO.+++@@@+++@@@+++@@@+++@@@+++@@@+++@@@+++@@@+++@@@++.OoXXX.",
".XXXoO.+++@@@+++@@@+++@@@+++@@@+++@@@+++@@@+++@@@+++@@@++.OoXXX.",
".XXXoO.+++@@@+++@@@+++@@@+++@@@+++@@@+++@@@+++@@@+++@@@++.OoXXX.",
".XXXoO.+++@@@+++@@@+++@@@+++@@@+++@@@+++@@@+++@@@+++@@@++.OoXXX.",
".XXXoO.+++@@@+++@@@+++@@@+++@@@+++@@@+++@@@+++@@@+++@@@++.OoXXX.",
".XXXoO.+++@@@+++@@@+++@@@+++@@@+++@@@+++@@@+++@@@+++@@@++.OoXXX.",
".XXXoO.+++@@@+++@@@+++@@@+++@@@+++@@@+++@@@+++@@@+++@@@++.OoXXX.",
".XXXoO.+++@@@+++@@@+++@@@+++@@@+++@@@+++@@@+++@@@+++@@@++.OoXXX.",
".XXXoO.+++@@@+++@@@+++@@@+++@@@+++@@@+++@@@+++@@@+++@@@++.OoXXX.",
".XXXoO.+++@@@+++@@@+++@@@+++@@@+++@@@+++@@@+++@@@+++@@@++.OoXXX.",
".XXXoO.+++@@@+++@@@+++@@@+++@@@+++@@@+++@@@+++@@@+++@@@++.OoXXX.",
".XXXoO.+++@@@+++@@@+++@@@+++@@@+++@@@+++@@@+++@@@+++@@@++.OoXXX.",
".XXXoO.+++@@@+++@@@+++@@@+++@@@+++@@@+++@@@+++@@@+++@@@++.OoXXX.",
".XXXoO.+++@@@+++@@@+++@@@+++@@@+++@@@+++@@@+++@@@+++@@@++.OoXXX.",
".XXXoO.+++@@@+++@@@+++@@@+++@@@+++@@@+++@@@+++@@@+++@@@++.OoXXX.",
".XXXoO.+++@@@+++@@@+++@@@+++@@@+++@@@+++@@@+++@@@+++@@@++.OoXXX.",
".XXXoO.+++@@@+++@@@+++@@@+++@@@+++@@@+++@@@+++@@@+++@@@++.OoXXX.",
".XXXoO.+++@@@+++@@@+++@@@+++@@@+++@@@+++@@@+++@@@+++@@@++.OoXXX.",
".XXXoO.+++@@@+++@@@+++@@@+++@@@+++@@@+++@@@+++@@@+++@@@++.OoXXX.",
".XXXoO.+++@@@+++@@@+++@@@+++@@@+++@@@+++@@@+++@@@+++@@@++.OoXXX.",
".XXXoO.+++@@@+++@@@+++@@@+++@@@+++@@@+++@@@+++@@@+++@@@++.OoXXX.",
".XXXoO.+++@@@+++@@@+++@@@+++@@@+++@@@+++@@@+++@@@+++@@@++.OoXXX.",
".XXXoO.+++@@@+++@@@+++@@@+++@@@+++@@@+++@@@+++@@@+++@@@++.OoXXX.",
".XXXoO.+++@@@+++@@@+++@@@+++@@@+++@@@+++@@@+++@@@+++@@@++.OoXXX.",
".XXXoO.+++@@@+++@@@+++@@@+++@@@+++@@@+++@@@+++@@@+++@@@++.OoXXX.",
".XXXoO.+++@@@+++@@@+++@@@+++@@@+++@@@+++@@@+++@@@+++@@@++.OoXXX.",
".XXXoO.+++@@@+++@@@+++@@@+++@@@+++@@@+++@@@+++@@@+++@@@++.OoXXX.",
".XXXoO.+++@@@+++@@@+++@@@+++@@@+++@@@+++@@@+++@@@+++@@@++.OoXXX.",
".XXXoO.+++@@@+++@@@+++@@@+++@@@+++@@@+++@@@+++@@@+++@@@++.OoXXX.",
".XXXoO.+++@@@+++@@@+++@@@+++@@@+++@@@+++@@@+++@@@+++@@@++.OoXXX.",
".XXXoO.+++@@@+++@@@+++@@@+++@@@+++@@@+++@@@+++@@@+++@@@++.OoXXX.",
".XXXoO.+++@@@+++@@@+++@@@+++@@@+++@@@+++@@@+++@@@+++@@@++.OoXXX.",
".XXXoO.+++@@@+++@@@+++@@@+++@@@+++@@@+++@@@+++@@@+++@@@++.OoXXX.",
".XXXoO.+++@@@+++@@@+++@@@+++@@@+++@@@+++@@@+++@@@+++@@@++.OoXXX.",
".XXXoO.+++@@@+++@@@+++@@@+++@@@+++@@@+++@@@+++@@@+++@@@++.OoXXX.",
" .............................................................. ",
".OOOOOOOOOOOOOOOOOOOOOOOOOOOOOOOOOOOOOOOOOOOOOOOOOOOOOOOOOOOOOO.",
".oooooooooooooooooooooooooooooooooooooooooooooooooooooooooooooo.",
".XXXXXXXXXXXXXXXXXXXXXXXXXXXXXXXXXXXXXXXXXXXXXXXXXXXXXXXXXXXXXX.",
".XXXXXXXXXXXXXXXXXXXXXXXXXXXXXXXXXXXXXXXXXXXXXXXXXXXXXXXXXXXXXX.",
".XXXXXXXXXXXXXXXXXXXXXXXXXXXXXXXXXXXXXXXXXXXXXXXXXXXXXXXXXXXXXX.",
" .............................................................. "
};
